<svg t="1573307765787" class="icon" viewBox="0 0 1024 1024" version="1.1" xmlns="http://www.w3.org/2000/svg" p-id="7562" width="200" height="200"><path d="M512-214.13685158c98.03601619 0 193.05553958 19.27203738 282.54482615 56.97819746 86.47279377 36.53307953 164.06369207 88.98653777 230.76169967 155.68454537 66.69800758 66.69800758 118.9838829 144.28890588 155.68454538 230.76169965 37.87374301 89.48928658 56.97819746 184.50880995 56.97819742 282.54482616s-19.27203738 193.05553958-56.97819742 282.54482617c-36.53307953 86.47279377-88.98653777 164.06369207-155.68454538 230.76169964s-144.28890588 118.9838829-230.76169967 155.68454538c-89.48928658 37.87374301-184.50880995 56.97819746-282.54482615 56.97819745s-193.05553958-19.27203738-282.54482615-56.97819745c-86.47279377-36.53307953-164.06369207-88.98653777-230.76169967-155.68454538-66.69800758-66.69800758-118.9838829-144.28890588-155.68454538-230.76169964-37.87374301-89.48928658-56.97819746-184.50880995-56.97819742-282.54482617s19.27203738-193.05553958 56.97819742-282.54482616c36.53307953-86.47279377 88.98653777-164.06369207 155.68454538-230.76169965s144.28890588-118.9838829 230.76169967-155.68454537c89.48928658-37.70616007 184.50880995-56.97819746 282.54482615-56.97819746m0-25.13744006c-414.93534377 0-751.27429164 336.33894786-751.27429164 751.27429164S97.06465623 1263.27429164 512 1263.27429164s751.27429164-336.33894786 751.27429164-751.27429164S926.93534377-239.27429164 512-239.27429164z" p-id="7563" fill="#313639"></path><path d="M865.76757297 266.99375099c27.65118406 0 50.27488011 22.62369604 50.27488009 50.27488007v510.29003301c0 27.65118406-22.62369604 50.27488011-50.27488009 50.27488012H158.23242703c-27.65118406 0-50.27488011-22.62369604-50.27488009-50.27488012V317.26863106c0-27.65118406 22.62369604-50.27488011 50.27488009-50.27488007h707.53514594m0-25.13744007H158.23242703c-41.7281505 0-75.41232014 33.68416965-75.41232014 75.41232014v510.29003301c0 41.7281505 33.68416965 75.41232014 75.41232014 75.41232016H865.59999004c41.7281505 0 75.41232014-33.68416965 75.41232015-75.41232016V317.26863106c0.16758294-41.7281505-33.68416965-75.41232014-75.24473722-75.41232014z" p-id="7564" fill="#313639"></path><path d="M165.10332731 265.82067044c-5.36265388 0-10.39014189-3.51924161-12.06597122-8.88189547-2.0109952-6.70331735 1.84341228-13.57421762 8.37914668-15.58521284l439.90520086-132.22293467c6.70331735-2.0109952 13.57421762 1.84341228 15.58521286 8.37914668 2.0109952 6.70331735-1.84341228 13.57421762-8.3791467 15.58521285l-439.90520086 132.22293465c-1.17308055 0.33516586-2.34616108 0.50274881-3.51924162 0.5027488zM730.69572844 372.5709992c26.31052059 0 47.76113611 21.4506155 47.76113608 47.76113607v79.09914471c0 26.31052059-21.4506155 47.76113611-47.76113608 47.76113608H290.79052756c-26.31052059 0-47.76113611-21.4506155-47.76113609-47.76113608v-79.09914471c0-26.31052059 21.4506155-47.76113611 47.76113609-47.76113607h439.90520088m0-25.13744005H290.79052756c-40.21990407 0-72.89857616 32.67867206-72.89857615 72.89857612v79.09914471c0 40.21990407 32.67867206 72.89857616 72.89857615 72.89857615h439.90520088c40.21990407 0 72.89857616-32.67867206 72.89857613-72.89857615v-79.09914471c0-40.38748702-32.67867206-72.89857616-72.89857613-72.89857612z" p-id="7565" fill="#313639"></path><path d="M414.80189849 563.44796063c-6.87090027 0-12.56872002-5.69781977-12.56872005-12.56872003v-120.65971223c0-6.87090027 5.69781977-12.56872002 12.56872005-12.56872003s12.56872002 5.69781977 12.56872001 12.56872003v120.65971223c0 7.03848323-5.69781977 12.56872002-12.56872001 12.56872003zM325.14502896 661.98672562c35.69516487 0 64.51942947 28.99184753 64.51942945 64.51942945s-28.99184753 64.51942947-64.51942945 64.51942947-64.51942947-28.99184753-64.51942947-64.51942947 28.82426458-64.51942947 64.51942947-64.51942945m0-25.13744003c-49.60454834 0-89.65686951 40.21990407-89.65686951 89.65686948 0 49.60454834 40.21990407 89.65686951 89.65686951 89.65686954s89.65686951-40.21990407 89.65686953-89.65686954-40.21990407-89.65686951-89.65686953-89.65686948zM743.26444846 714.27260094c6.87090027 0 12.56872002 5.69781977 12.56872002 12.56872001s-5.69781977 12.56872002-12.56872002 12.56872005-12.56872002-5.69781977-12.56872002-12.56872005 5.69781977-12.56872002 12.56872002-12.56872001m0-25.13744005c-20.78028378 0-37.70616007 16.92587628-37.70616008 37.70616006s16.92587628 37.70616007 37.70616008 37.70616008 37.70616007-16.92587628 37.70616007-37.70616008-16.92587628-37.70616007-37.70616007-37.70616006z" p-id="7566" fill="#313639"></path></svg>